# xmcd
#
# Track frame offsets:
#  150
#  11807
#  23246
#  34858
#  45037
#  55939
#  65640
#  76531
#  89318
#  101774
#  110892
#  123426
#  134877
#  147445
#  158788
#  170715
#  181721
#  194045
#  203773
#  214413
#  226195
#  237264
#  246893
#  257746
#  267371
#  277882
#  289137
#  301607
#  312631
#  322479
#  334328
#  346301
#
# Disc length: 4745 seconds
#
# Revision: 0
# Processed by: cddbd v1.5.2PL0 Copyright (c) Steve Scherf et al.
# Submitted via: AltoMP3_Maker 3.0
#
DISCID=e9128720
DTITLE=Various Artist - King Hillbilly, Vol. 1
DYEAR=1900
DGENRE=
TTITLE0=Zeb Turner - Travellin' Boogie
TTITLE1=Clyde Moody - The Blues Came Pouring in
TTITLE2=Cowboy Copas - Tennessee Flat Guitar
TTITLE3=Lattie Moore - I Gotta Go Home (& Catch up on My Sleep)
TTITLE4=Louis Innis - Suicide
TTITLE5=Ralph Sanford OO EE Baby
TTITLE6=Hawkshaw Hawkins - I'm a Lone Wolf
TTITLE7=Wayne Raney - Real Good Feeling
TTITLE8=Jack Cardwell - My Love for You Would Fill Ten Pots
TTITLE9=Grandpa Jones - Hello Blues
TTITLE10=York Bros. - Mohawk Squaw
TTITLE11=Shorty Long and Dolly Dimple - Hillbilly Wedding
TTITLE12=Jimmie Osborne - Nag Nag Nag
TTITLE13=Hardrock Gunter - First Last and Always Game of Love
TTITLE14=Hawkshaw Hawkins - Rattlesnakin' Daddy
TTITLE15=Lattie Moore - A Brand New Case of Love
TTITLE16=Wayne Raney - I Feel Just Like a Millionaire
TTITLE17=Jimmie Osborne - I Do and I Does and I Do
TTITLE18=Jimmie Osborne - You All Come
TTITLE19=Hawkshaw Hawkins - Shotgun Boogie
TTITLE20=Jimmie Osborne - I'm Scared to Go Home
TTITLE21=Jack Cardwell - A Vitamin Called Love
TTITLE22=Wayne Raney - Gone with the Wind This Morning
TTITLE23=Ann Jones - A Little Bit of Nylon
TTITLE24=Jimmie Osborne - The Voice of Free America
TTITLE25=Grandpa Jones - The Rain Is Falling down
TTITLE26=Clyde Moody - She Cooked My Goose
TTITLE27=Jimmie Osborne - Automobile Baby
TTITLE28=Ann Jones - I've Had It
TTITLE29=Delmore Bros. - Tennessee Choo Choo
TTITLE30=Herb and Kay - Coffee Blues
TTITLE31=Louis Innis - Ain't Got a Pot
EXTD=
EXTT0=
EXTT1=
EXTT2=
EXTT3=
EXTT4=
EXTT5=
EXTT6=
EXTT7=
EXTT8=
EXTT9=
EXTT10=
EXTT11=
EXTT12=
EXTT13=
EXTT14=
EXTT15=
EXTT16=
EXTT17=
EXTT18=
EXTT19=
EXTT20=
EXTT21=
EXTT22=
EXTT23=
EXTT24=
EXTT25=
EXTT26=
EXTT27=
EXTT28=
EXTT29=
EXTT30=
EXTT31=
PLAYORDER=
